<svg width="295" height="23" viewBox="0 0 295 23" fill="none" xmlns="http://www.w3.org/2000/svg">
<g clip-path="url(#clip0_24760_10)">
<path d="M142.127 5.6855C142.525 6.975 146.956 21.3588 147.472 23.0703C148 21.3588 152.431 6.975 152.818 5.6855C153.709 9.34299 157.777 7.47908 157.777 4.14983C157.777 -0.926117 150.743 -1.30125 149.207 3.17684C148.469 5.31037 147.472 8.37 147.472 8.37C147.472 8.37 146.488 5.31037 145.749 3.17684C144.202 -1.30125 137.18 -0.926117 137.18 4.14983C137.18 7.42047 141.248 9.28438 142.127 5.6855Z" fill="#CC0C6F"/>
<path d="M0 10.1753L109.994 11.4296L0 12.684V10.1753Z" fill="#CC0C6F"/>
<path d="M294.956 12.7074L180.261 11.4296L294.956 10.1519V12.7074Z" fill="#CC0C6F"/>
</g>
<defs>
<clipPath id="clip0_24760_10">
<rect width="294.956" height="23" fill="white"/>
</clipPath>
</defs>
</svg>
