<svg width="16" height="13" viewBox="0 0 16 13" fill="none" xmlns="http://www.w3.org/2000/svg">
<path fill-rule="evenodd" clip-rule="evenodd" d="M4.5323 12.3079C4.81775 12.5804 5.19788 12.7313 5.59247 12.7288C5.98706 12.7263 6.36525 12.5707 6.64726 12.2946L14.4282 4.64806C14.6365 4.44553 14.8024 4.20355 14.9163 3.93622C15.0301 3.66889 15.0896 3.38157 15.0913 3.09102C15.0929 2.80046 15.0367 2.51248 14.9259 2.24388C14.8151 1.97528 14.6519 1.73143 14.4459 1.52655C14.2414 1.32036 13.9976 1.15737 13.7289 1.04727C13.4602 0.93717 13.1721 0.882208 12.8817 0.88565C12.5914 0.889092 12.3047 0.950867 12.0386 1.0673C11.7726 1.18374 11.5327 1.35246 11.3332 1.56345L6.10265 6.98882C6.03735 7.0579 5.95841 7.11266 5.87084 7.14962C5.78326 7.18659 5.68896 7.20497 5.59392 7.20358C5.49887 7.20219 5.40515 7.18107 5.31869 7.14156C5.23223 7.10206 5.15492 7.04502 5.09167 6.97406L4.22532 6.02802C4.03436 5.8134 3.80131 5.64034 3.54066 5.51957C3.28 5.39881 2.9973 5.33292 2.71011 5.326C2.42292 5.31908 2.13737 5.37127 1.8712 5.47934C1.60503 5.58741 1.36392 5.74905 1.16285 5.95422C0.957496 6.15834 0.794989 6.40143 0.684865 6.66921C0.574741 6.937 0.519218 7.22408 0.521555 7.51361C0.523892 7.80315 0.584042 8.08929 0.698475 8.35527C0.812908 8.62123 0.979317 8.86167 1.18794 9.06245L4.5323 12.3079Z" fill="#11AF22"/>
</svg>
