<svg width="71" height="74" viewBox="0 0 71 74" fill="none" xmlns="http://www.w3.org/2000/svg">
<path d="M64.5988 22.4609C60.9096 26.145 55.509 21.311 57.6434 16.9151C58.6655 14.8266 60.1733 11.8816 60.1733 11.8816C60.1733 11.8816 57.2204 13.3834 55.133 14.4042C50.7349 16.5357 45.8904 11.1424 49.5796 7.45827C52.0117 5.02954 56.347 6.64087 54.3223 9.94567C55.3327 9.40595 64.7476 4.42334 68.9929 2.18233L69.8858 3.07404C67.6417 7.31356 62.6523 16.7156 62.1197 17.7325C65.429 15.7105 67.0386 20.0321 64.6027 22.4609" fill="#CC096F"/>
<path d="M5.43939 51.5391C9.12857 47.855 14.5292 52.6929 12.3948 57.0849C11.3726 59.1734 9.86484 62.1184 9.86484 62.1184C9.86484 62.1184 12.8178 60.6166 14.9052 59.5958C19.3032 57.4643 24.1477 62.8576 20.4585 66.5417C18.0265 68.9704 13.6911 67.3591 15.7158 64.0543C14.7054 64.594 5.29057 69.5767 1.04527 71.8177L0.152344 70.9259C2.3964 66.6864 7.38581 57.2844 7.91843 56.2675C4.60913 58.2895 2.99952 53.9679 5.43547 51.5391" fill="#CC096F"/>
<path d="M20.4585 7.45827C24.1477 11.1424 19.3032 16.5357 14.9052 14.4042C12.8138 13.3834 9.86483 11.8777 9.86483 11.8777C9.86483 11.8777 11.3687 14.8266 12.3909 16.9112C14.5253 21.3032 9.12465 26.1411 5.43546 22.453C3.00342 20.0243 4.61695 15.6948 7.92625 17.7168C7.38971 16.7195 2.40031 7.31357 0.15625 3.07405L1.04917 2.18625C5.29448 4.42334 14.7132 9.40986 15.7276 9.94176C13.7028 6.63696 18.0304 5.02954 20.4624 7.45827" fill="#CC096F"/>
<path d="M49.5757 66.5378C45.8865 62.8536 50.731 57.4604 55.1291 59.5919C57.2204 60.6126 60.1694 62.1184 60.1694 62.1184C60.1694 62.1184 58.6655 59.1695 57.6395 57.0849C55.5051 52.6929 60.9057 47.855 64.5949 51.543C67.0269 53.9718 65.4134 58.3012 62.1041 56.2793C62.6445 57.2844 67.6339 66.6903 69.878 70.9299L68.9851 71.8177C64.7398 69.5806 55.321 64.594 54.3066 64.0621C56.3314 67.3669 52.0038 68.9744 49.5718 66.5417" fill="#CC096F"/>
<path d="M52.5808 47.6047C47.3643 47.6047 46.9687 40.3732 51.59 38.7736C53.791 38.0188 56.9436 36.998 56.9436 36.998C56.9436 36.998 53.791 35.9773 51.59 35.2224C46.9727 33.6229 47.3643 26.3914 52.5808 26.3914C56.0194 26.3914 57.9423 30.5918 54.1709 31.4992C55.2674 31.8277 65.4538 34.9565 70.0438 36.3684V37.6277C65.4577 39.0435 55.2674 42.1684 54.1709 42.5086C57.9423 43.416 56.0194 47.6047 52.5808 47.6047Z" fill="#CC096F"/>
<path d="M17.459 26.3914C22.6756 26.3914 23.0711 33.6229 18.4498 35.2264C16.2489 35.9812 13.0962 37.002 13.0962 37.002C13.0962 37.002 16.2489 38.0227 18.4498 38.7775C23.0672 40.3771 22.6756 47.6086 17.459 47.6086C14.0205 47.6086 12.0975 43.4082 15.869 42.5008C14.7724 42.1723 4.58602 39.0435 0 37.6316V36.3723C4.58602 34.9565 14.7763 31.8316 15.869 31.4914C12.0975 30.584 14.0205 26.3953 17.459 26.3953" fill="#CC096F"/>
<path d="M40.5219 17.8811C40.1147 16.5553 35.556 1.75213 35.0156 0C34.4751 1.75213 29.9165 16.5553 29.5092 17.8811C28.6006 14.1226 24.4062 16.039 24.4062 19.465C24.4062 24.6784 31.6397 25.0656 33.2376 20.4545C33.9973 18.2683 35.0156 15.1238 35.0156 15.1238C35.0156 15.1238 36.0338 18.2683 36.7936 20.4545C38.3915 25.0656 45.6249 24.6784 45.6249 19.465C45.6249 16.039 41.4305 14.1226 40.5219 17.8811Z" fill="#CC096F"/>
<path d="M29.5131 56.1189C29.9204 57.4447 34.4791 72.2479 35.0195 74C35.56 72.244 40.1186 57.4447 40.5219 56.1189C41.4305 59.8813 45.6249 57.9649 45.6249 54.5389C45.6249 49.3255 38.3915 48.9383 36.7936 53.5494C36.0338 55.7356 35.0156 58.8801 35.0156 58.8801C35.0156 58.8801 33.9973 55.7356 33.2376 53.5494C31.6397 48.9383 24.4062 49.3255 24.4062 54.5389C24.4062 57.9649 28.6006 59.8813 29.5092 56.1189" fill="#CC096F"/>
</svg>
