<svg width="48" height="48" viewBox="0 0 48 48" fill="none" xmlns="http://www.w3.org/2000/svg">
<path fill-rule="evenodd" clip-rule="evenodd" d="M32.7027 22.6328L29.8708 26.0725L28.2262 24.7185L31.058 21.2788C32.3692 19.6863 32.141 17.3324 30.5485 16.0212C28.9559 14.7101 26.602 14.9383 25.2909 16.5308L22.4591 19.9704L20.8145 18.6165L23.6463 15.1768C25.7052 12.676 29.4016 12.3177 31.9025 14.3766C34.4033 16.4355 34.7615 20.132 32.7027 22.6328Z" fill="#CC096F"/>
<path fill-rule="evenodd" clip-rule="evenodd" d="M15.2749 25.3454L18.1067 21.9057L19.7513 23.2597L16.9195 26.6993C15.6084 28.2919 15.8365 30.6458 17.429 31.9569C19.0216 33.268 21.3755 33.0399 22.6866 31.4474L25.5185 28.0077L27.1631 29.3617L24.3312 32.8013C22.2723 35.3022 18.5759 35.6604 16.0751 33.6015C13.5742 31.5426 13.216 27.8462 15.2749 25.3454Z" fill="#CC096F"/>
<path fill-rule="evenodd" clip-rule="evenodd" d="M19.1055 28.2458L27.2294 18.3781L28.874 19.7321L20.7501 29.5998L19.1055 28.2458Z" fill="#CC096F"/>
</svg>
