<svg width="80" height="80" viewBox="0 0 80 80" fill="none" xmlns="http://www.w3.org/2000/svg">
<circle cx="40" cy="40" r="40" fill="#EB7A34"/>
<path d="M52.0909 37.9V28.9182C52.0909 22.3545 46.7364 17 40 17C33.2636 17 27.9091 22.3545 27.9091 28.9182V37.9C23.9364 38.7636 21 42.2182 21 46.3636V55C21 59.8364 24.8 63.6364 29.6364 63.6364H50.3636C55.2 63.6364 59 59.8364 59 55V46.3636C59 42.2182 56.0636 38.7636 52.0909 37.9ZM41.7273 54.6545V56.7273C41.7273 57.7636 41.0364 58.4545 40 58.4545C38.9636 58.4545 38.2727 57.7636 38.2727 56.7273V54.6545C36.2 53.9636 34.8182 52.0636 34.8182 49.8182C34.8182 46.8818 37.0636 44.6364 40 44.6364C42.9364 44.6364 45.1818 46.8818 45.1818 49.8182C45.1818 52.0636 43.8 53.9636 41.7273 54.6545ZM48.6364 37.7273H31.3636V28.9182C31.3636 24.2545 35.1636 20.4545 40 20.4545C44.8364 20.4545 48.6364 24.2545 48.6364 28.9182V37.7273Z" fill="white"/>
</svg>
