<svg width="40" height="40" viewBox="0 0 40 40" fill="none" xmlns="http://www.w3.org/2000/svg">
<g clip-path="url(#clip0_24763_240)">
<path d="M36.5709 6.57141H3.42801C1.69226 6.57141 0.285156 7.97852 0.285156 9.71427V30.2857C0.285156 32.0214 1.69226 33.4286 3.42801 33.4286H36.5709C38.3066 33.4286 39.7137 32.0214 39.7137 30.2857V9.71427C39.7137 7.97852 38.3066 6.57141 36.5709 6.57141Z" fill="white" stroke="#D9D9D9" stroke-width="0.857143"/>
<path fill-rule="evenodd" clip-rule="evenodd" d="M12.1429 24.8666H9.71966L7.90252 17.9341C7.81629 17.6153 7.63315 17.3333 7.36378 17.2005C6.69149 16.8666 5.95069 16.6008 5.14258 16.4668V16.1999H9.04618C9.58498 16.1999 9.98904 16.6008 10.0563 17.0665L10.9992 22.067L13.4213 16.1999H15.7771L12.1429 24.8666ZM17.124 24.8666H14.8355L16.72 16.1999H19.0085L17.124 24.8666ZM21.9693 18.6008C22.0366 18.1341 22.4407 17.8671 22.9121 17.8671C23.6529 17.8001 24.4598 17.9342 25.1333 18.2669L25.5374 16.4009C24.8639 16.134 24.1232 16 23.4509 16C21.2297 16 19.6134 17.2005 19.6134 18.8666C19.6134 20.1341 20.7582 20.7995 21.5664 21.2005C22.4407 21.6002 22.7774 21.8671 22.7101 22.2669C22.7101 22.8666 22.0366 23.1335 21.3643 23.1335C20.5562 23.1335 19.7481 22.9336 19.0085 22.5997L18.6044 24.4668C19.4125 24.7995 20.2869 24.9336 21.095 24.9336C23.5856 24.9994 25.1333 23.8001 25.1333 22C25.1333 19.7331 21.9693 19.6002 21.9693 18.6008ZM33.1426 24.8666L31.3254 16.1999H29.3737C28.9696 16.1999 28.5655 16.4668 28.4308 16.8666L25.0659 24.8666H27.4218L27.8921 23.6002H30.7867L31.0561 24.8666H33.1426ZM29.7104 18.5338L30.3826 21.8001H28.4982L29.7104 18.5338Z" fill="#172B85"/>
</g>
<defs>
<clipPath id="clip0_24763_240">
<rect width="40" height="40" fill="white"/>
</clipPath>
</defs>
</svg>
