<svg width="27" height="26" viewBox="0 0 27 26" fill="none" xmlns="http://www.w3.org/2000/svg">
<path fill-rule="evenodd" clip-rule="evenodd" d="M3.13956 13C3.13956 7.18785 7.91866 2.47619 13.814 2.47619C19.7092 2.47619 24.4884 7.18785 24.4884 13C24.4884 18.8121 19.7092 23.5238 13.814 23.5238C11.714 23.5238 9.75927 22.9272 8.11002 21.897C7.80309 21.7054 7.42699 21.6541 7.07882 21.7565L3.46315 22.8204L4.8245 19.6799C4.98541 19.3087 4.95267 18.8835 4.73677 18.5406C3.72437 16.9322 3.13956 15.0353 3.13956 13ZM13.814 0C6.53153 0 0.627934 5.82029 0.627934 13C0.627934 15.2757 1.22211 17.4179 2.26631 19.2804L0.101057 24.2753C-0.0903565 24.7169 -0.00551123 25.2277 0.318752 25.5861C0.643016 25.9445 1.14822 26.0856 1.61497 25.9482L7.2654 24.2858C9.19564 25.3766 11.4326 25.9999 13.814 25.9999C21.0964 25.9999 27 20.1797 27 13C27 5.82029 21.0964 0 13.814 0ZM16.6929 15.702L15.0425 16.8481C14.2696 16.414 13.415 15.8081 12.5578 14.963C11.6666 14.0844 11.006 13.1774 10.5188 12.3454L11.5677 11.4677C12.0178 11.0911 12.141 10.4561 11.8637 9.94223L10.5273 7.46604C10.3473 7.13261 10.0229 6.8984 9.6461 6.82999C9.26933 6.76158 8.88151 6.86646 8.59287 7.11481L8.19665 7.45573C7.24382 8.27558 6.6803 9.62283 7.14735 10.987C7.63156 12.4011 8.6649 14.6268 10.7818 16.7139C13.0593 18.9593 15.3728 19.8435 16.7257 20.187C17.8157 20.4636 18.8473 20.0928 19.5741 19.5089L20.3169 18.9121C20.6347 18.6569 20.8061 18.2648 20.7762 17.8618C20.7462 17.4588 20.5186 17.0956 20.1665 16.8887L18.0589 15.6506C17.6331 15.4006 17.0982 15.4207 16.6929 15.702Z" fill="white"/>
</svg>
